<svg width="10" height="17" viewBox="0 0 10 17" fill="none" xmlns="http://www.w3.org/2000/svg">
<path d="M3.59337 8.65846L3.86101 7.69494L3.86101 7.69494L3.59337 8.65846ZM4.66667 8.9566L4.95192 7.99815C4.94607 7.9964 4.9402 7.99471 4.93431 7.99308L4.66667 8.9566ZM5.56061 9.22265L5.84587 8.2642L5.84587 8.2642L5.56061 9.22265ZM3 10.9965C3 10.4442 2.55228 9.99653 2 9.99653C1.44772 9.99653 1 10.4442 1 10.9965H3ZM5.83333 7.00347C5.83333 7.55576 6.28105 8.00347 6.83333 8.00347C7.38562 8.00347 7.83333 7.55576 7.83333 7.00347H5.83333ZM3.5 4.83333C3.5 5.38562 3.94772 5.83333 4.5 5.83333C5.05228 5.83333 5.5 5.38562 5.5 4.83333H3.5ZM5.5 4C5.5 3.44772 5.05228 3 4.5 3C3.94772 3 3.5 3.44772 3.5 4H5.5ZM3.5 14C3.5 14.5523 3.94772 15 4.5 15C5.05228 15 5.5 14.5523 5.5 14H3.5ZM5.5 13.1667C5.5 12.6144 5.05228 12.1667 4.5 12.1667C3.94772 12.1667 3.5 12.6144 3.5 13.1667H5.5ZM4.75 3.83333H4.11476V5.83333H4.75V3.83333ZM4.08333 14.1667H4.98616V12.1667H4.08333V14.1667ZM3.32572 9.62198L4.39902 9.92012L4.93431 7.99308L3.86101 7.69494L3.32572 9.62198ZM4.38141 9.91505L5.27536 10.1811L5.84587 8.2642L4.95192 7.99815L4.38141 9.91505ZM3 11.0833V10.9965H1V11.0833H3ZM5.83333 6.91667V7.00347H7.83333V6.91667H5.83333ZM8 11.1528C8 9.81945 7.12384 8.64455 5.84587 8.2642L5.27536 10.1811C5.70527 10.3091 6 10.7043 6 11.1528H8ZM1.16667 6.78143C1.16667 8.10574 2.04973 9.26753 3.32572 9.62198L3.86101 7.69494C3.45066 7.58095 3.16667 7.20732 3.16667 6.78143H1.16667ZM4.98616 14.1667C6.65066 14.1667 8 12.8173 8 11.1528H6C6 11.7128 5.54609 12.1667 4.98616 12.1667V14.1667ZM4.08333 12.1667C3.48502 12.1667 3 11.6816 3 11.0833H1C1 12.7862 2.38046 14.1667 4.08333 14.1667V12.1667ZM4.75 5.83333C5.34831 5.83333 5.83333 6.31836 5.83333 6.91667H7.83333C7.83333 5.21379 6.45288 3.83333 4.75 3.83333V5.83333ZM4.11476 3.83333C2.48657 3.83333 1.16667 5.15324 1.16667 6.78143H3.16667C3.16667 6.25781 3.59114 5.83333 4.11476 5.83333V3.83333ZM5.5 4.83333V4H3.5V4.83333H5.5ZM5.5 14V13.1667H3.5V14H5.5Z" fill="white"/>
</svg>
