<svg width="20" height="20" viewBox="0 0 20 20" fill="none" xmlns="http://www.w3.org/2000/svg">
<g clip-path="url(#clip0)">
<path d="M19.2269 0.148945C18.9628 -0.0344161 18.6178 -0.0494163 18.3369 0.108945L0.835968 10.1095C0.550965 10.272 0.387603 10.5878 0.420104 10.9153C0.452604 11.2428 0.674286 11.5204 0.985969 11.6237L6.70958 13.5313L7.08459 19.2216C7.10791 19.5741 7.35045 19.8733 7.68963 19.9683C7.76464 19.9891 7.84132 20 7.91632 20C8.18218 20 8.43718 19.8725 8.59636 19.6483L11.7415 15.208L15.9868 16.6231C16.0734 16.6523 16.1618 16.6664 16.2501 16.6664C16.4001 16.6664 16.5485 16.6256 16.6801 16.5464C16.8893 16.4214 17.0326 16.2106 17.0726 15.9698L19.5728 0.968992C19.6253 0.651489 19.4911 0.332306 19.2269 0.148945ZM7.20881 11.9412L3.28111 10.632L14.3633 4.29918L7.20881 11.9412ZM8.59386 16.769L8.418 14.1005L10.0898 14.6581L8.59386 16.769ZM15.5892 14.7347L8.94973 12.5213L17.476 3.41413L15.5892 14.7347Z" fill="white"/>
</g>
<defs>
<clipPath id="clip0">
<rect width="20" height="20" fill="white"/>
</clipPath>
</defs>
</svg>
