<svg width="15" height="15" viewBox="0 0 15 15" fill="none" xmlns="http://www.w3.org/2000/svg">
<path d="M8.68967 10.6756L7.81079 9.79668C7.6392 9.62506 7.36094 9.62506 7.18931 9.79668L6.31041 10.6756C6.03475 10.9512 6.2299 11.4258 6.62113 11.4258H8.37894C8.76871 11.4258 8.96635 10.9522 8.68967 10.6756Z" fill="black"/>
<path d="M4.86331 5.27338C3.65174 5.27338 2.66602 6.25907 2.66602 7.47067C2.66602 8.68224 3.65171 9.66796 4.86331 9.66796C6.07491 9.66796 7.06061 8.68227 7.06061 7.47064C7.06061 6.25907 6.07488 5.27338 4.86331 5.27338ZM4.86331 8.79489C4.13637 8.79489 3.53909 8.19761 3.53909 7.47067C3.53909 6.74373 4.13637 6.14645 4.86331 6.14645C5.59025 6.14645 6.18753 6.74373 6.18753 7.47067C6.18753 8.19761 5.59025 8.79489 4.86331 8.79489Z" fill="black"/>
<path d="M10.1367 5.27338C8.92518 5.27338 7.93945 6.25907 7.93945 7.47067C7.93945 8.68224 8.92515 9.66796 10.1367 9.66796C11.3483 9.66796 12.334 8.68227 12.334 7.47067C12.334 6.25907 11.3483 5.27338 10.1367 5.27338ZM10.1367 8.79489C9.40981 8.79489 8.81253 8.19761 8.81253 7.47067C8.81253 6.74373 9.40981 6.14645 10.1367 6.14645C10.8637 6.14645 11.461 6.74373 11.461 7.47067C11.461 8.19761 10.8637 8.79489 10.1367 8.79489Z" fill="black"/>
<path d="M13.9485 7.9391C14.4058 5.74969 13.7429 3.51246 12.1612 1.93072V1.93069C10.9161 0.685664 9.26077 0 7.50005 0C5.73934 0 4.08398 0.685664 2.83886 1.93072C1.26067 3.50894 0.591322 5.74465 1.05155 7.93925C0.871576 8.46416 0.861557 9.02514 1.02369 9.57056C1.29919 10.4968 2.06548 11.181 3.02938 11.365C3.14056 11.3967 3.14709 11.3655 3.36512 11.4014C3.42509 11.4113 3.48234 11.4196 3.54498 11.4238V13.1237C3.54498 13.6566 3.8586 14.1324 4.34396 14.3356C5.06756 14.6387 6.20238 14.9998 7.49941 14.9999C7.49964 14.9999 7.49985 15 7.50008 15C7.50032 15 7.50055 14.9999 7.50076 14.9999C8.7977 14.9998 9.93258 14.6386 10.6563 14.3356C11.1416 14.1323 11.4552 13.6566 11.4552 13.1237V11.4217C11.516 11.4176 11.5728 11.4099 11.6323 11.4008C11.8646 11.3652 11.8739 11.3981 11.9909 11.3587C12.9552 11.1651 13.7155 10.4757 13.9832 9.54715C14.1383 9.00937 14.1259 8.45643 13.9485 7.9391ZM13.1387 9.30375C12.9595 9.92549 12.4398 10.385 11.7819 10.5038C11.4228 10.5148 11.4728 10.5867 11.1032 10.5116C10.8311 10.4563 10.5763 10.6647 10.5763 10.9423V13.1237C10.5763 13.3014 10.4744 13.4589 10.3168 13.5249C10.1562 13.5922 9.93996 13.6674 9.69155 13.7477V12.7968C9.69155 12.5541 9.50065 12.3633 9.25796 12.3633C9.01526 12.3633 8.8185 12.56 8.8185 12.8027V13.9841C8.54343 14.0394 8.24226 14.0771 7.93374 14.0992V12.7969C7.93374 12.5542 7.74284 12.3633 7.50014 12.3633C7.25745 12.3633 7.06069 12.56 7.06069 12.8027V14.1051C6.75216 14.083 6.45099 14.0336 6.17592 13.9782V12.7969C6.17592 12.5542 5.98502 12.3633 5.74233 12.3633C5.49963 12.3633 5.30288 12.56 5.30288 12.8027V13.7536C5.0545 13.6733 4.84415 13.5922 4.68351 13.525C4.52583 13.4589 4.41811 13.2956 4.41811 13.1178L4.41817 10.9367C4.41817 10.6595 4.16967 10.4565 3.89715 10.5118C3.50525 10.5914 3.59144 10.5129 3.20402 10.5035C2.5599 10.384 2.04831 9.93202 1.86629 9.32001C1.74767 8.92096 1.76496 8.51127 1.9163 8.13521C1.94982 8.05192 1.95703 7.96037 1.93696 7.87289C1.48409 5.8989 2.08784 3.92499 3.46054 2.55223C4.53946 1.47316 5.9741 0.873047 7.50005 0.873047C9.02601 0.873047 10.4607 1.47313 11.5397 2.55217C12.9374 3.94995 13.507 5.93897 13.0633 7.8728C13.0433 7.96031 13.0505 8.05186 13.084 8.13513C13.2332 8.50602 13.2521 8.91012 13.1387 9.30375Z" fill="black"/>
</svg>
